<?xml version="1.0" encoding="utf-8"?>
<!-- Generator: Adobe Illustrator 27.3.1, SVG Export Plug-In . SVG Version: 6.00 Build 0)  -->
<svg version="1.1" id="Layer_1" xmlns="http://www.w3.org/2000/svg" xmlns:xlink="http://www.w3.org/1999/xlink" x="0px" y="0px"
	 viewBox="0 0 796 296" style="enable-background:new 0 0 796 296;" xml:space="preserve">
<style type="text/css">
	.st0{fill:#FFFFFF;}
	.st1{fill:#089949;}
</style>
<g>
	<g>
		<path d="M325.6,140.8h75.7v17.3h-53.4V192h42.5v16.9h-42.5v46.8h-22.3V140.8z"/>
		<path d="M450.4,169.8c25.5,0,45.1,17.9,45.1,43.6c0,26.4-20.6,43.8-46,43.8c-25.6,0-46.1-17.7-46.1-43.4
			C403.4,187.5,425.1,169.8,450.4,169.8z M473.9,213.6c0-15.5-7.8-28.3-24.3-28.3c-17,0-23.7,13.5-23.7,28.9
			c0,14.9,7.9,27.6,24.2,27.6C466.9,241.8,473.9,228.3,473.9,213.6z"/>
		<path d="M510.2,171.6h20.1v15.8c5.7-11.5,14.8-17,27.6-17V189c-16.2,0-27.6,5.3-27.6,23.3v43.4h-20.1V171.6z"/>
		<path d="M573.8,171.6h20.1v12.9c5-9.7,15.2-14.7,26.1-14.7c10.4,0,20.5,4.6,24.4,15c6.4-9.6,17.4-15,29.4-15
			c19.3,0,28.4,14.1,28.4,32.6v53.2h-20v-52c0-10.5-5.3-17.3-16-17.3c-11.7,0-18,8.1-18,19v50.3H628v-52c0-10.5-5.3-17.3-16.1-17.3
			c-11.6,0-18,8.1-18,19v50.3h-20.1V171.6z"/>
		<path d="M732.3,230.6c3.1,8.2,11.7,12.2,20.8,12.2c6.5,0,14.6-2,14.6-10c0-8.4-9.1-10.4-19.5-12.6c-13.5-2.8-28.6-6.1-28.6-25
			c0-17.3,16.1-25.5,31.3-25.5c13.3,0,28.6,5,34.1,18.3l-14.9,6.4c-3.3-7.5-11.5-10.3-18.4-10.3c-6.7,0-13.1,2.7-13.1,9.5
			c0,7.7,8.2,9.3,18.4,11.3c13.7,2.7,30.1,5.8,30.1,25.4c0,19.8-16.6,26.8-34.1,26.8c-14.8,0-30.8-5-36-20.1L732.3,230.6z"/>
	</g>
	<g>
		<path d="M325.8,104.4l37-53.4h-33.2V40.5h50.6v5.2l-36.1,53.4h35v10.5h-53.3V104.4z"/>
		<path d="M411.8,58c15.4,0,27.2,10.8,27.2,26.3c0,15.9-12.4,26.4-27.7,26.4c-15.4,0-27.8-10.7-27.8-26.1
			C383.5,68.6,396.6,58,411.8,58z M426,84.3c0-9.3-4.7-17.1-14.7-17.1c-10.2,0-14.3,8.1-14.3,17.4c0,9,4.8,16.6,14.6,16.6
			C421.7,101.3,426,93.2,426,84.3z"/>
		<path d="M447.8,36.1h12.1v31c3.3-6.3,9.9-9.1,16.9-9.1C489,58,495,66.5,495,78v31.7h-12.2V79.2c0-7.3-3.8-11.3-10.8-11.3
			c-7.8,0-12.1,4.8-12.1,12v29.7h-12.1V36.1z"/>
		<path d="M531.2,58c15.4,0,27.2,10.8,27.2,26.3c0,15.9-12.4,26.4-27.7,26.4c-15.4,0-27.8-10.7-27.8-26.1
			C502.9,68.6,515.9,58,531.2,58z M545.3,84.3c0-9.3-4.7-17.1-14.7-17.1c-10.2,0-14.3,8.1-14.3,17.4c0,9,4.8,16.6,14.6,16.6
			C541.1,101.3,545.3,93.2,545.3,84.3z"/>
	</g>
</g>
<g>
	<path class="st1" d="M229.4,3H39C21.5,3,7.3,17.2,7.2,34.7v226.5C7.3,278.8,21.5,293,39,293h24.2c4.7,0,8.5-3.8,8.5-8.5v-64.1h62.8
		c17.5,0,31.7-14.2,31.7-31.7V159c0-4.7-3.8-8.5-8.5-8.5H86.4c-17.5,0-31.7,14.2-31.7,31.7v29.1v0.5V276H38.9
		c-8.1,0-14.7-6.6-14.7-14.7V34.7c0-8.1,6.6-14.7,14.7-14.7h190.4c8.1,0,14.7,6.6,14.7,14.7v226.5c0,8.1-6.6,14.7-14.7,14.7H97.2
		c-4.7,0-8.5,3.8-8.5,8.5c0,4.7,3.8,8.5,8.5,8.5h132.2c17.5,0,31.7-14.2,31.7-31.7V34.7C261.1,17.2,246.9,3,229.4,3z M71.7,182.3
		c0-8.1,6.6-14.7,14.7-14.7h62.8v21.1c0,8.1-6.6,14.7-14.7,14.7H71.7V182.3z"/>
	<path class="st1" d="M213.6,58.8c0-4.7-3.8-8.5-8.5-8.5H86.4c-17.5,0-31.7,14.2-31.7,31.7v29.6c0,4.7,3.8,8.5,8.5,8.5h118.7
		c17.5,0,31.7-14.2,31.7-31.7V58.8z M196.6,88.4c0,8.1-6.6,14.7-14.7,14.7H71.7V82c0-8.1,6.6-14.7,14.7-14.7h110.2V88.4z"/>
</g>
</svg>
